<svg xmlns="http://www.w3.org/2000/svg" width="81.182" height="81.182"><path d="M40.591 81.182c-22.41 0-40.591-18.18-40.591-40.591s18.181-40.591 40.591-40.591c22.411 0 40.591 18.18 40.591 40.591s-18.181 40.591-40.591 40.591zm0-71.166c-16.841 0-30.574 13.733-30.574 30.575s13.733 30.575 30.574 30.575 30.575-13.733 30.575-30.575-13.734-30.575-30.575-30.575zm19.109 36.308c0 1.014-.897 1.911-1.911 1.911h-22.931c-1.015 0-1.911-.896-1.911-1.911v-26.753c0-1.014.896-1.911 1.911-1.911h3.821c1.015 0 1.911.897 1.911 1.911v21.02h17.198c1.014 0 1.911.896 1.911 1.911v3.822z"/></svg>