<svg xmlns="http://www.w3.org/2000/svg" width="18" height="25" viewBox="-1 -1 18 25"><path fill="#fff" d="M13.4 9.9c.9.2 1.6.6 2 1.2.4.6.6 1.6.6 2.9 0 2.7-.8 4.8-2.4 6.5-1.6 1.7-3.6 2.6-6.1 2.6-1 0-1.9-.2-2.8-.5-.9-.4-1.7-.8-2.4-1.5-.8-.7-1.3-1.4-1.7-2.2-.4-.9-.6-1.7-.6-2.4 0-.9.2-1.6.6-2.1s1-.8 1.8-1c-.2-.4-.3-.7-.3-.9-.1-.3-.1-.5-.1-.6 0-.5.2-1 .7-1.5s1-.7 1.4-.7c.2 0 .4 0 .6.1.2.1.5.2.7.3C4.6 7.8 4 6 3.6 4.8S3 2.7 3 2.2c0-.7.2-1.2.5-1.7.3-.4.8-.6 1.4-.6 1 0 2.2 2.2 3.8 6.6.3.8.5 1.3.6 1.8.1-.3.3-.8.5-1.4C11.3 2.5 12.6.3 13.7.3c.5 0 1 .2 1.3.5.3.4.5.8.5 1.5 0 .5-.2 1.3-.5 2.5s-.9 3.1-1.6 5.1zM2.1 16.2c.1.2.4.4.6.8.7 1 1.3 1.4 1.9 1.4.2 0 .4-.1.5-.2.2-.1.2-.3.2-.4 0-.2-.1-.4-.3-.8-.2-.4-.5-.8-.9-1.2-.4-.5-.8-.9-1-1.2s-.5-.4-.7-.4c-.4 0-.7.2-1 .6-.2.6-.4 1-.4 1.6 0 .4.1.9.3 1.4.2.5.5 1.1.9 1.6.6.8 1.4 1.5 2.3 1.9s1.9.7 3.1.7c2.1 0 3.8-.8 5.2-2.3s2.1-3.4 2.1-5.8c0-.7-.1-1.3-.2-1.7-.1-.4-.3-.7-.5-.9-.4-.4-1.3-.7-2.5-1s-2.5-.4-3.9-.4c-.4 0-.6.1-.8.2-.2.1-.2.3-.2.6 0 .7.4 1.2 1.2 1.6.8.4 2 .6 3.8.6h.6c.1 0 .3.1.4.2s.2.2.2.4c-.2.2-.5.4-1.1.6s-1 .4-1.3.6c-.6.5-1.1 1-1.5 1.6s-.6 1.2-.6 1.7c0 .3.1.8.2 1.3s.3.8.3 1v.2c-.5 0-.8-.3-1.1-.8-.3-.5-.4-1.2-.4-2v-.1c-.1.1-.2.1-.2.2s-.2 0-.3 0h-.3c-.1 0-.2 0-.3-.1 0 .1.1.2.1.3v.3c0 .4-.2.7-.5 1s-.7.4-1.1.4c-.7 0-1.3-.3-2-1s-1-1.3-1-1.9v-.3c.1 0 .2-.1.2-.3zm4.7.4c.2 0 .3-.1.5-.2.1-.2.2-.3.2-.5s-.1-.7-.4-1.4-.6-1.4-1.1-2.1c-.3-.5-.6-.9-.9-1.2-.3-.3-.6-.4-.9-.4-.2 0-.5.1-.7.4-.3.3-.4.5-.4.8s.1.6.4 1.1.6 1 1.1 1.6c.5.6.9 1.1 1.3 1.5.4.3.7.4.9.4zm1.6-7.5L6.7 4.2c-.4-1.3-.8-2.1-1-2.5-.2-.4-.5-.7-.8-.7-.2 0-.4.2-.5.3s-.2.4-.2.7c0 .5.2 1.3.6 2.5s.9 2.8 1.7 4.7c.1-.1.2-.2.3-.2.1 0 .3-.1.5-.1h.4c0 .1.3.2.7.2zm1.8 4.8c-.5 0-.9-.1-1.3-.1l-1.2-.3c.2.3.3.7.4 1 .1.3.2.7.3 1 .3-.3.5-.6.8-.9.4-.4.7-.5 1-.7zm2.1-4.3c.7-1.9 1.2-3.5 1.6-4.7.4-1.2.6-2 .6-2.3s-.1-.5-.2-.7c-.1-.2-.3-.3-.5-.3-.3 0-.6.2-.9.7s-.6 1.3-1 2.4l-1.6 4.6c0-.1 2 .3 2 .3z"/></svg>