<svg xmlns="http://www.w3.org/2000/svg" viewBox="0 0 14 13" enable-background="new 0 0 14 13"><path fill="#F27486" d="M126 5.5c-3.312 0-6-2.688-6-6s2.688-6 6-6 6 2.688 6 6-2.688 6-6 6zm0-10.25c-2.344 0-4.25 1.906-4.25 4.25s1.906 4.25 4.25 4.25 4.25-1.906 4.25-4.25-1.907-4.25-4.25-4.25zm1 5c0 .141-.109.25-.25.25h-2.5c-.141 0-.25-.109-.25-.25v-.5c0-.141.109-.25.25-.25h1.75v-2.75c0-.141.109-.25.25-.25h.5c.141 0 .25.109.25.25v3.5z"/><path fill="#FB5853" d="M13.844 7.039c-1.438 2.367-4.071 3.961-6.844 3.961s-5.406-1.602-6.844-3.961c-.094-.164-.156-.344-.156-.539s.062-.375.156-.539c1.438-2.359 4.071-3.961 6.844-3.961s5.406 1.602 6.844 3.961c.094.164.156.344.156.539s-.062.375-.156.539zm-3.821-3.297c.313.531.477 1.141.477 1.758 0 1.93-1.57 3.5-3.5 3.5s-3.5-1.57-3.5-3.5c0-.617.164-1.227.477-1.758-1.219.625-2.235 1.61-2.977 2.758 1.336 2.062 3.492 3.5 6 3.5s4.664-1.438 6-3.5c-.742-1.148-1.758-2.133-2.977-2.758zm-3.023-.617c-1.305 0-2.375 1.07-2.375 2.375 0 .203.172.375.375.375s.375-.172.375-.375c0-.891.734-1.625 1.625-1.625.203 0 .375-.172.375-.375s-.172-.375-.375-.375z"/></svg>