<svg xmlns="http://www.w3.org/2000/svg" viewBox="0 0 14 13" enable-background="new 0 0 14 13"><path fill="#F27486" d="M126 5.5c-3.312 0-6-2.688-6-6s2.688-6 6-6 6 2.688 6 6-2.688 6-6 6zm0-10.25c-2.344 0-4.25 1.906-4.25 4.25s1.906 4.25 4.25 4.25 4.25-1.906 4.25-4.25-1.907-4.25-4.25-4.25zm1 5c0 .14-.11.25-.25.25h-2.5c-.14 0-.25-.11-.25-.25v-.5c0-.14.11-.25.25-.25H126v-2.75c0-.14.11-.25.25-.25h.5c.14 0 .25.11.25.25v3.5z"/><path fill="#FB5853" d="M13.844 7.04C12.406 9.405 9.774 11 7 11S1.594 9.398.156 7.04C.062 6.874 0 6.694 0 6.5s.062-.375.156-.54C1.594 3.603 4.226 2 7 2s5.406 1.602 6.844 3.96c.094.165.156.345.156.54s-.062.375-.156.54zm-3.82-3.298c.312.53.476 1.14.476 1.758C10.5 7.43 8.93 9 7 9S3.5 7.43 3.5 5.5c0-.617.164-1.227.477-1.758C2.757 4.367 1.742 5.352 1 6.5 2.336 8.562 4.492 10 7 10s4.664-1.438 6-3.5c-.742-1.148-1.758-2.133-2.977-2.758zM7 3.125c-1.305 0-2.375 1.07-2.375 2.375 0 .203.172.375.375.375s.375-.172.375-.375c0-.89.734-1.625 1.625-1.625.203 0 .375-.172.375-.375S7.203 3.125 7 3.125z"/></svg>