<?xml version="1.0" encoding="utf-8"?>
<!-- Generator: Adobe Illustrator 17.1.0, SVG Export Plug-In . SVG Version: 6.00 Build 0)  -->
<!DOCTYPE svg PUBLIC "-//W3C//DTD SVG 1.1//EN" "http://www.w3.org/Graphics/SVG/1.1/DTD/svg11.dtd">
<svg version="1.1" id="Layer_1" xmlns="http://www.w3.org/2000/svg" xmlns:xlink="http://www.w3.org/1999/xlink" x="0px" y="0px"
	 viewBox="0 0 12 12" enable-background="new 0 0 12 12" xml:space="preserve">
<g>
	<path fill="#FB5853" d="M6,12c-3.312,0-6-2.688-6-6s2.688-6,6-6s6,2.688,6,6S9.312,12,6,12z M6,1.75C3.656,1.75,1.75,3.656,1.75,6
		S3.656,10.25,6,10.25S10.25,8.344,10.25,6S8.344,1.75,6,1.75z M7,6.75C7,6.891,6.891,7,6.75,7h-2.5C4.109,7,4,6.891,4,6.75v-0.5
		C4,6.109,4.109,6,4.25,6H6V3.25C6,3.109,6.109,3,6.25,3h0.5C6.891,3,7,3.109,7,3.25V6.75z"/>
</g>
</svg>
