<?xml version="1.0" encoding="utf-8"?>
<!-- Generator: Adobe Illustrator 19.1.0, SVG Export Plug-In . SVG Version: 6.00 Build 0)  -->
<svg version="1.1" id="Layer_1" xmlns="http://www.w3.org/2000/svg" xmlns:xlink="http://www.w3.org/1999/xlink" x="0px" y="0px"
	 width="18px" height="25px" viewBox="-1 -1 18 25" style="enable-background:new -1 -1 18 25;" xml:space="preserve">
<path fill="#000" d="M13.4,9.9c0.9,0.2,1.6,0.6,2,1.2c0.4,0.6,0.6,1.6,0.6,2.9c0,2.7-0.8,4.8-2.4,6.5c-1.6,1.7-3.6,2.6-6.1,2.6
	c-1,0-1.9-0.2-2.8-0.5c-0.9-0.4-1.7-0.8-2.4-1.5c-0.8-0.7-1.3-1.4-1.7-2.2C0.2,18,0,17.2,0,16.5c0-0.9,0.2-1.6,0.6-2.1s1-0.8,1.8-1
	c-0.2-0.4-0.3-0.7-0.3-0.9C2,12.2,2,12,2,11.9c0-0.5,0.2-1,0.7-1.5s1-0.7,1.4-0.7c0.2,0,0.4,0,0.6,0.1c0.2,0.1,0.5,0.2,0.7,0.3
	C4.6,7.8,4,6,3.6,4.8S3,2.7,3,2.2C3,1.5,3.2,1,3.5,0.5c0.3-0.4,0.8-0.6,1.4-0.6c1,0,2.2,2.2,3.8,6.6C9,7.3,9.2,7.8,9.3,8.3
	C9.4,8,9.6,7.5,9.8,6.9c1.5-4.4,2.8-6.6,3.9-6.6c0.5,0,1,0.2,1.3,0.5c0.3,0.4,0.5,0.8,0.5,1.5c0,0.5-0.2,1.3-0.5,2.5
	S14.1,7.9,13.4,9.9z M2.1,16.2c0.1,0.2,0.4,0.4,0.6,0.8c0.7,1,1.3,1.4,1.9,1.4c0.2,0,0.4-0.1,0.5-0.2c0.2-0.1,0.2-0.3,0.2-0.4
	c0-0.2-0.1-0.4-0.3-0.8c-0.2-0.4-0.5-0.8-0.9-1.2c-0.4-0.5-0.8-0.9-1-1.2s-0.5-0.4-0.7-0.4c-0.4,0-0.7,0.2-1,0.6
	C1.2,15.4,1,15.8,1,16.4c0,0.4,0.1,0.9,0.3,1.4c0.2,0.5,0.5,1.1,0.9,1.6c0.6,0.8,1.4,1.5,2.3,1.9S6.4,22,7.6,22
	c2.1,0,3.8-0.8,5.2-2.3s2.1-3.4,2.1-5.8c0-0.7-0.1-1.3-0.2-1.7c-0.1-0.4-0.3-0.7-0.5-0.9c-0.4-0.4-1.3-0.7-2.5-1S9.2,9.9,7.8,9.9
	c-0.4,0-0.6,0.1-0.8,0.2c-0.2,0.1-0.2,0.3-0.2,0.6c0,0.7,0.4,1.2,1.2,1.6c0.8,0.4,2,0.6,3.8,0.6h0.6c0.1,0,0.3,0.1,0.4,0.2
	s0.2,0.2,0.2,0.4c-0.2,0.2-0.5,0.4-1.1,0.6s-1,0.4-1.3,0.6c-0.6,0.5-1.1,1-1.5,1.6S8.5,17.5,8.5,18c0,0.3,0.1,0.8,0.2,1.3
	s0.3,0.8,0.3,1v0.2c-0.5,0-0.8-0.3-1.1-0.8c-0.3-0.5-0.4-1.2-0.4-2v-0.1c-0.1,0.1-0.2,0.1-0.2,0.2s-0.2,0-0.3,0H6.7
	c-0.1,0-0.2,0-0.3-0.1c0,0.1,0.1,0.2,0.1,0.3v0.3c0,0.4-0.2,0.7-0.5,1s-0.7,0.4-1.1,0.4c-0.7,0-1.3-0.3-2-1c-0.7-0.7-1-1.3-1-1.9
	v-0.3C2,16.5,2.1,16.4,2.1,16.2z M6.8,16.6c0.2,0,0.3-0.1,0.5-0.2c0.1-0.2,0.2-0.3,0.2-0.5c0-0.2-0.1-0.7-0.4-1.4S6.5,13.1,6,12.4
	c-0.3-0.5-0.6-0.9-0.9-1.2c-0.3-0.3-0.6-0.4-0.9-0.4c-0.2,0-0.5,0.1-0.7,0.4c-0.3,0.3-0.4,0.5-0.4,0.8s0.1,0.6,0.4,1.1
	s0.6,1,1.1,1.6c0.5,0.6,0.9,1.1,1.3,1.5C6.3,16.5,6.6,16.6,6.8,16.6z M8.4,9.1L6.7,4.2c-0.4-1.3-0.8-2.1-1-2.5C5.5,1.3,5.2,1,4.9,1
	C4.7,1,4.5,1.2,4.4,1.3S4.2,1.7,4.2,2c0,0.5,0.2,1.3,0.6,2.5s0.9,2.8,1.7,4.7C6.6,9.1,6.7,9,6.8,9c0.1,0,0.3-0.1,0.5-0.1h0.4
	C7.7,9,8,9.1,8.4,9.1z M10.2,13.9c-0.5,0-0.9-0.1-1.3-0.1l-1.2-0.3c0.2,0.3,0.3,0.7,0.4,1c0.1,0.3,0.2,0.7,0.3,1
	c0.3-0.3,0.5-0.6,0.8-0.9C9.6,14.2,9.9,14.1,10.2,13.9z M12.3,9.6c0.7-1.9,1.2-3.5,1.6-4.7c0.4-1.2,0.6-2,0.6-2.3s-0.1-0.5-0.2-0.7
	c-0.1-0.2-0.3-0.3-0.5-0.3c-0.3,0-0.6,0.2-0.9,0.7s-0.6,1.3-1,2.4l-1.6,4.6C10.3,9.2,12.3,9.6,12.3,9.6z"/>
</svg>
