<?xml version="1.0" encoding="utf-8"?>
<!-- Generator: Adobe Illustrator 18.1.1, SVG Export Plug-In . SVG Version: 6.00 Build 0)  -->
<!DOCTYPE svg PUBLIC "-//W3C//DTD SVG 1.1//EN" "http://www.w3.org/Graphics/SVG/1.1/DTD/svg11.dtd">
<svg version="1.1" id="Layer_1" xmlns="http://www.w3.org/2000/svg" xmlns:xlink="http://www.w3.org/1999/xlink" x="0px" y="0px"
	 width="16px" height="23px" viewBox="0 0 16 23" enable-background="new 0 0 16 23" xml:space="preserve">
<path fill="#FFFFFF" d="M13.4,9.8c0.9,0.2,1.6,0.6,2,1.2c0.4,0.6,0.6,1.6,0.6,2.9c0,2.7-0.8,4.8-2.4,6.5C12,22.1,10,23,7.5,23c-1,0-1.9-0.2-2.8-0.5
	c-0.9-0.4-1.7-0.8-2.4-1.5c-0.8-0.7-1.3-1.4-1.7-2.2C0.2,18,0,17.2,0,16.4c0-0.9,0.2-1.6,0.6-2.1s1-0.8,1.8-1
	c-0.2-0.4-0.3-0.7-0.3-0.9C2,12.1,2,11.9,2,11.8c0-0.5,0.2-1,0.7-1.5c0.5-0.5,1-0.7,1.4-0.7c0.2,0,0.4,0,0.6,0.1
	C4.9,9.7,5.2,9.9,5.5,10C4.7,7.7,4.1,6,3.7,4.7C3.3,3.5,3.1,2.6,3.1,2.1c0-0.7,0.2-1.2,0.5-1.6C4,0.2,4.4,0,5,0c1,0,2.2,2.2,3.8,6.6
	C9,7.4,9.2,8,9.4,8.4C9.5,8.1,9.7,7.6,9.9,7c1.5-4.4,2.8-6.6,3.9-6.6c0.5,0,1,0.2,1.3,0.5c0.3,0.4,0.5,0.9,0.5,1.5
	c0,0.5-0.2,1.3-0.5,2.5C14.7,6.2,14.1,7.8,13.4,9.8z M2.1,16.2c0.1,0.2,0.4,0.4,0.6,0.8c0.7,1,1.3,1.4,1.9,1.4
	c0.2,0,0.4-0.1,0.5-0.2c0.2-0.1,0.2-0.3,0.2-0.4c0-0.2-0.1-0.4-0.3-0.8c-0.2-0.4-0.5-0.8-0.9-1.2c-0.4-0.5-0.8-0.9-1-1.2
	c-0.3-0.2-0.5-0.4-0.7-0.4c-0.4,0-0.7,0.2-1,0.6C1.2,15.3,1,15.7,1,16.3c0,0.4,0.1,0.9,0.3,1.4c0.2,0.5,0.5,1.1,0.9,1.6
	c0.6,0.8,1.4,1.5,2.3,1.9c0.9,0.4,1.9,0.7,3.1,0.7c2.1,0,3.8-0.8,5.2-2.3c1.4-1.5,2.1-3.4,2.1-5.8c0-0.7-0.1-1.3-0.2-1.7
	c-0.1-0.4-0.3-0.7-0.5-0.9c-0.4-0.4-1.3-0.7-2.5-1C10.5,10,9.2,9.9,7.8,9.9C7.4,9.9,7.1,10,7,10.1s-0.2,0.3-0.2,0.6
	c0,0.7,0.4,1.2,1.2,1.6c0.8,0.3,2.1,0.5,3.9,0.5h0.6c0.1,0,0.3,0.1,0.4,0.2c0.1,0.1,0.2,0.3,0.2,0.5c-0.2,0.2-0.5,0.4-1.1,0.6
	c-0.6,0.2-1,0.4-1.3,0.6c-0.6,0.5-1.1,1-1.5,1.6c-0.4,0.6-0.6,1.2-0.6,1.8c0,0.3,0.1,0.8,0.2,1.3S9,20.1,9,20.3v0.1l0,0.1
	c-0.5,0-0.8-0.3-1.1-0.8c-0.3-0.5-0.4-1.2-0.4-2v-0.1c-0.1,0.1-0.2,0.1-0.2,0.2c-0.1,0-0.2,0-0.3,0c-0.1,0-0.2,0-0.3,0
	c-0.1,0-0.2,0-0.3-0.1c0,0.1,0.1,0.2,0.1,0.3c0,0.1,0,0.2,0,0.3c0,0.4-0.2,0.7-0.5,1c-0.3,0.3-0.7,0.4-1.1,0.4c-0.7,0-1.3-0.3-2-1
	c-0.7-0.6-1-1.3-1-1.9c0-0.1,0-0.2,0-0.3C2,16.4,2.1,16.3,2.1,16.2z M6.8,16.6c0.2,0,0.3-0.1,0.5-0.2c0.1-0.2,0.2-0.3,0.2-0.5
	c0-0.2-0.1-0.7-0.4-1.4C6.8,13.7,6.5,13,6,12.3c-0.3-0.5-0.6-0.9-0.9-1.2c-0.3-0.3-0.6-0.4-0.9-0.4c-0.2,0-0.5,0.1-0.7,0.4
	s-0.4,0.5-0.4,0.8c0,0.3,0.1,0.6,0.4,1.1c0.3,0.5,0.6,1,1.1,1.6c0.5,0.6,0.9,1.1,1.3,1.5C6.3,16.4,6.6,16.6,6.8,16.6z M8.4,9
	L6.7,4.1C6.3,2.8,5.9,2,5.7,1.6C5.4,1.2,5.2,1,4.9,1C4.7,1,4.5,1.1,4.3,1.3C4.2,1.5,4.1,1.7,4.1,2c0,0.5,0.2,1.3,0.6,2.5
	c0.4,1.2,0.9,2.8,1.7,4.7C6.4,9.1,6.5,9,6.6,9c0.1,0,0.3-0.1,0.5-0.1c0.1,0,0.2,0,0.4,0C7.7,8.9,8,9,8.4,9z M10.2,13.8
	c-0.5,0-0.9-0.1-1.3-0.1c-0.4-0.1-0.8-0.2-1.2-0.3c0.2,0.3,0.3,0.7,0.4,1c0.1,0.3,0.2,0.7,0.3,1C8.8,15,9,14.7,9.3,14.5
	C9.6,14.2,9.9,14,10.2,13.8z M12.3,9.5C13,7.6,13.5,6,13.9,4.8c0.4-1.2,0.6-2,0.6-2.3c0-0.3-0.1-0.5-0.2-0.7
	c-0.1-0.2-0.3-0.3-0.5-0.3c-0.3,0-0.6,0.2-0.9,0.7c-0.3,0.5-0.6,1.3-1,2.4l-1.6,4.6L12.3,9.5z"/>
</svg>
