<?xml version="1.0" encoding="utf-8"?>
<!-- Generator: Adobe Illustrator 17.1.0, SVG Export Plug-In . SVG Version: 6.00 Build 0)  -->
<!DOCTYPE svg PUBLIC "-//W3C//DTD SVG 1.1//EN" "http://www.w3.org/Graphics/SVG/1.1/DTD/svg11.dtd">
<svg version="1.1" id="Layer_1" xmlns="http://www.w3.org/2000/svg" xmlns:xlink="http://www.w3.org/1999/xlink" x="0px" y="0px"
	 viewBox="0 0 13 13" enable-background="new 0 0 13 13" xml:space="preserve">
<g>
	<path fill="#FB5853" d="M12,13c-0.266,0-0.523-0.109-0.703-0.297l-2.68-2.672C7.703,10.664,6.609,11,5.5,11C2.461,11,0,8.539,0,5.5
		S2.461,0,5.5,0S11,2.461,11,5.5c0,1.109-0.336,2.203-0.969,3.117l2.68,2.68C12.891,11.477,13,11.734,13,12
		C13,12.547,12.547,13,12,13z M5.5,2C3.57,2,2,3.57,2,5.5S3.57,9,5.5,9S9,7.43,9,5.5S7.43,2,5.5,2z"/>
</g>
</svg>
