<?xml version="1.0" encoding="utf-8"?><!DOCTYPE svg PUBLIC "-//W3C//DTD SVG 1.1//EN" "http://www.w3.org/Graphics/SVG/1.1/DTD/svg11.dtd"><svg width="62" height="54" viewBox="0 0 62 54" xmlns="http://www.w3.org/2000/svg" xmlns:xlink="http://www.w3.org/1999/xlink"><svg width="31" height="31" viewBox="6 -5 31 31" enable-background="new 6 -5 31 31" id="sprite--close"><path fill="none" stroke="#fff" stroke-width="2" stroke-linecap="round" stroke-miterlimit="10" d="M11.4.4l20.2 20.1m0-20.1l-20.2 20"/></svg><svg width="31" height="31" viewBox="6 -5 31 31" enable-background="new 6 -5 31 31" id="sprite--close-alt" x="31"><path fill="none" stroke="#E75A62" stroke-width="2" stroke-linecap="round" stroke-miterlimit="10" d="M11.4.4l20.2 20.1m0-20.1l-20.2 20"/></svg><svg width="16" height="23" viewBox="0 0 16 23" id="sprite--peace" y="31"><path fill="#fff" d="M13.4 9.8c.9.2 1.6.6 2 1.2.4.6.6 1.6.6 2.9 0 2.7-.8 4.8-2.4 6.5C12 22.1 10 23 7.5 23c-1 0-1.9-.2-2.8-.5-.9-.4-1.7-.8-2.4-1.5-.8-.7-1.3-1.4-1.7-2.2-.4-.8-.6-1.6-.6-2.4 0-.9.2-1.6.6-2.1s1-.8 1.8-1c-.2-.4-.3-.7-.3-.9-.1-.3-.1-.5-.1-.6 0-.5.2-1 .7-1.5.5-.5 1-.7 1.4-.7.2 0 .4 0 .6.1.2 0 .5.2.8.3-.8-2.3-1.4-4-1.8-5.3-.4-1.2-.6-2.1-.6-2.6 0-.7.2-1.2.5-1.6C4 .2 4.4 0 5 0c1 0 2.2 2.2 3.8 6.6.2.8.4 1.4.6 1.8.1-.3.3-.8.5-1.4C11.4 2.6 12.7.4 13.8.4c.5 0 1 .2 1.3.5.3.4.5.9.5 1.5 0 .5-.2 1.3-.5 2.5-.4 1.3-1 2.9-1.7 4.9zM2.1 16.2c.1.2.4.4.6.8.7 1 1.3 1.4 1.9 1.4.2 0 .4-.1.5-.2.2-.1.2-.3.2-.4 0-.2-.1-.4-.3-.8-.2-.4-.5-.8-.9-1.2-.4-.5-.8-.9-1-1.2-.3-.2-.5-.4-.7-.4-.4 0-.7.2-1 .6-.2.5-.4.9-.4 1.5 0 .4.1.9.3 1.4.2.5.5 1.1.9 1.6.6.8 1.4 1.5 2.3 1.9.9.4 1.9.7 3.1.7 2.1 0 3.8-.8 5.2-2.3 1.4-1.5 2.1-3.4 2.1-5.8 0-.7-.1-1.3-.2-1.7-.1-.4-.3-.7-.5-.9-.4-.4-1.3-.7-2.5-1-1.2-.2-2.5-.3-3.9-.3-.4 0-.7.1-.8.2s-.2.3-.2.6c0 .7.4 1.2 1.2 1.6.8.3 2.1.5 3.9.5h.6c.1 0 .3.1.4.2.1.1.2.3.2.5-.2.2-.5.4-1.1.6-.6.2-1 .4-1.3.6-.6.5-1.1 1-1.5 1.6-.4.6-.6 1.2-.6 1.8 0 .3.1.8.2 1.3s.2.7.2.9v.2c-.5 0-.8-.3-1.1-.8-.3-.5-.4-1.2-.4-2v-.1c-.1.1-.2.1-.2.2h-.6c-.1 0-.2 0-.3-.1 0 .1.1.2.1.3v.3c0 .4-.2.7-.5 1-.3.3-.7.4-1.1.4-.7 0-1.3-.3-2-1-.7-.6-1-1.3-1-1.9v-.3c.1-.1.2-.2.2-.3zm4.7.4c.2 0 .3-.1.5-.2.1-.2.2-.3.2-.5s-.1-.7-.4-1.4c-.3-.8-.6-1.5-1.1-2.2-.3-.5-.6-.9-.9-1.2-.3-.3-.6-.4-.9-.4-.2 0-.5.1-.7.4s-.4.5-.4.8c0 .3.1.6.4 1.1.3.5.6 1 1.1 1.6.5.6.9 1.1 1.3 1.5.4.3.7.5.9.5zM8.4 9L6.7 4.1c-.4-1.3-.8-2.1-1-2.5-.3-.4-.5-.6-.8-.6-.2 0-.4.1-.6.3-.1.2-.2.4-.2.7 0 .5.2 1.3.6 2.5.4 1.2.9 2.8 1.7 4.7 0-.1.1-.2.2-.2s.3-.1.5-.1h.4c.2 0 .5.1.9.1zm1.8 4.8c-.5 0-.9-.1-1.3-.1l-1.2-.3c.2.3.3.7.4 1 .1.3.2.7.3 1 .4-.4.6-.7.9-.9.3-.3.6-.5.9-.7zm2.1-4.3c.7-1.9 1.2-3.5 1.6-4.7.4-1.2.6-2 .6-2.3 0-.3-.1-.5-.2-.7-.1-.2-.3-.3-.5-.3-.3 0-.6.2-.9.7-.3.5-.6 1.3-1 2.4l-1.6 4.6 2 .3z"/></svg></svg>